<mxfile host="app.diagrams.net" modified="2024-05-09T08:45:10.366Z" agent="Mozilla/5.0 (X11; Linux x86_64) AppleWebKit/537.36 (KHTML, like Gecko) Chrome/124.0.0.0 Safari/537.36" etag="EwZJzu8C3XUONzSkOrDv" version="24.3.1" type="device">
  <diagram name="Page-1" id="mN7628GyL7t4qqilJu_C">
    <mxGraphModel dx="2447" dy="1701" grid="0" gridSize="10" guides="1" tooltips="1" connect="1" arrows="1" fold="1" page="0" pageScale="1" pageWidth="850" pageHeight="1100" math="0" shadow="0">
      <root>
        <mxCell id="0" />
        <mxCell id="1" parent="0" />
        <mxCell id="rYdtHCGjTf8S6d8_RMZv-33" value="" style="rounded=1;whiteSpace=wrap;html=1;" vertex="1" parent="1">
          <mxGeometry x="-404" y="-522" width="878" height="139" as="geometry" />
        </mxCell>
        <mxCell id="rYdtHCGjTf8S6d8_RMZv-1" value="oas-plataforma-core" style="rounded=1;whiteSpace=wrap;html=1;fillColor=#dae8fc;strokeColor=#6c8ebf;" vertex="1" parent="1">
          <mxGeometry x="-154" y="-482" width="180" height="60" as="geometry" />
        </mxCell>
        <mxCell id="rYdtHCGjTf8S6d8_RMZv-2" value="oas-plataforma-header" style="rounded=1;whiteSpace=wrap;html=1;fillColor=#d5e8d4;strokeColor=#82b366;" vertex="1" parent="1">
          <mxGeometry x="-356" y="-482.5" width="180" height="60" as="geometry" />
        </mxCell>
        <mxCell id="rYdtHCGjTf8S6d8_RMZv-8" style="edgeStyle=orthogonalEdgeStyle;rounded=0;orthogonalLoop=1;jettySize=auto;html=1;" edge="1" parent="1" source="rYdtHCGjTf8S6d8_RMZv-3" target="rYdtHCGjTf8S6d8_RMZv-7">
          <mxGeometry relative="1" as="geometry" />
        </mxCell>
        <mxCell id="rYdtHCGjTf8S6d8_RMZv-3" value="oas-plataforma-staging-env" style="rounded=1;whiteSpace=wrap;html=1;fillColor=#FFF300;strokeColor=#b85450;" vertex="1" parent="1">
          <mxGeometry x="-44" y="-226" width="180" height="60" as="geometry" />
        </mxCell>
        <mxCell id="rYdtHCGjTf8S6d8_RMZv-7" value="" style="rounded=1;whiteSpace=wrap;html=1;" vertex="1" parent="1">
          <mxGeometry x="-105" y="-82" width="302" height="242" as="geometry" />
        </mxCell>
        <mxCell id="rYdtHCGjTf8S6d8_RMZv-4" value="oas-plataforma-header" style="rounded=1;whiteSpace=wrap;html=1;fillColor=#d5e8d4;strokeColor=#82b366;" vertex="1" parent="1">
          <mxGeometry x="-34" y="-35" width="160" height="60" as="geometry" />
        </mxCell>
        <mxCell id="rYdtHCGjTf8S6d8_RMZv-5" value="oas-plataforma-core" style="rounded=1;whiteSpace=wrap;html=1;fillColor=#dae8fc;strokeColor=#6c8ebf;" vertex="1" parent="1">
          <mxGeometry x="-34" y="45" width="160" height="60" as="geometry" />
        </mxCell>
        <mxCell id="rYdtHCGjTf8S6d8_RMZv-9" style="edgeStyle=orthogonalEdgeStyle;rounded=0;orthogonalLoop=1;jettySize=auto;html=1;" edge="1" source="rYdtHCGjTf8S6d8_RMZv-10" target="rYdtHCGjTf8S6d8_RMZv-11" parent="1">
          <mxGeometry relative="1" as="geometry" />
        </mxCell>
        <mxCell id="rYdtHCGjTf8S6d8_RMZv-10" value="oas-plataforma-local-env" style="rounded=1;whiteSpace=wrap;html=1;fillColor=#e1d5e7;strokeColor=#9673a6;" vertex="1" parent="1">
          <mxGeometry x="318" y="-226" width="160" height="60" as="geometry" />
        </mxCell>
        <mxCell id="rYdtHCGjTf8S6d8_RMZv-11" value="" style="rounded=1;whiteSpace=wrap;html=1;" vertex="1" parent="1">
          <mxGeometry x="247" y="-82" width="302" height="242" as="geometry" />
        </mxCell>
        <mxCell id="rYdtHCGjTf8S6d8_RMZv-12" value="oas-plataforma-header" style="rounded=1;whiteSpace=wrap;html=1;fillColor=#d5e8d4;strokeColor=#82b366;" vertex="1" parent="1">
          <mxGeometry x="318" y="-35" width="160" height="60" as="geometry" />
        </mxCell>
        <mxCell id="rYdtHCGjTf8S6d8_RMZv-13" value="oas-plataforma-core" style="rounded=1;whiteSpace=wrap;html=1;fillColor=#dae8fc;strokeColor=#6c8ebf;" vertex="1" parent="1">
          <mxGeometry x="318" y="45" width="160" height="60" as="geometry" />
        </mxCell>
        <mxCell id="rYdtHCGjTf8S6d8_RMZv-19" style="edgeStyle=orthogonalEdgeStyle;rounded=0;orthogonalLoop=1;jettySize=auto;html=1;" edge="1" parent="1" source="rYdtHCGjTf8S6d8_RMZv-14" target="rYdtHCGjTf8S6d8_RMZv-16">
          <mxGeometry relative="1" as="geometry" />
        </mxCell>
        <mxCell id="rYdtHCGjTf8S6d8_RMZv-14" value="IDP/oas" style="rounded=1;whiteSpace=wrap;html=1;fillColor=#f8cecc;strokeColor=#b85450;" vertex="1" parent="1">
          <mxGeometry x="-396" y="-226" width="160" height="60" as="geometry" />
        </mxCell>
        <mxCell id="rYdtHCGjTf8S6d8_RMZv-16" value="" style="rounded=1;whiteSpace=wrap;html=1;" vertex="1" parent="1">
          <mxGeometry x="-467" y="-82" width="302" height="242" as="geometry" />
        </mxCell>
        <mxCell id="rYdtHCGjTf8S6d8_RMZv-17" value="IDP-header" style="rounded=1;whiteSpace=wrap;html=1;fillColor=#BA9B99;strokeColor=#b85450;" vertex="1" parent="1">
          <mxGeometry x="-396" y="-35" width="160" height="60" as="geometry" />
        </mxCell>
        <mxCell id="rYdtHCGjTf8S6d8_RMZv-18" value="oas-plataforma-core" style="rounded=1;whiteSpace=wrap;html=1;fillColor=#dae8fc;strokeColor=#6c8ebf;" vertex="1" parent="1">
          <mxGeometry x="-396" y="45" width="160" height="60" as="geometry" />
        </mxCell>
        <mxCell id="rYdtHCGjTf8S6d8_RMZv-23" style="edgeStyle=orthogonalEdgeStyle;rounded=0;orthogonalLoop=1;jettySize=auto;html=1;" edge="1" parent="1" source="rYdtHCGjTf8S6d8_RMZv-22" target="rYdtHCGjTf8S6d8_RMZv-3">
          <mxGeometry relative="1" as="geometry" />
        </mxCell>
        <mxCell id="rYdtHCGjTf8S6d8_RMZv-22" value="desenv / hm" style="text;html=1;align=center;verticalAlign=middle;whiteSpace=wrap;rounded=0;fontStyle=1;fontSize=20;" vertex="1" parent="1">
          <mxGeometry x="-25" y="-329" width="142" height="50" as="geometry" />
        </mxCell>
        <mxCell id="rYdtHCGjTf8S6d8_RMZv-25" style="edgeStyle=orthogonalEdgeStyle;rounded=0;orthogonalLoop=1;jettySize=auto;html=1;" edge="1" parent="1" source="rYdtHCGjTf8S6d8_RMZv-24" target="rYdtHCGjTf8S6d8_RMZv-10">
          <mxGeometry relative="1" as="geometry" />
        </mxCell>
        <mxCell id="rYdtHCGjTf8S6d8_RMZv-24" value="local" style="text;html=1;align=center;verticalAlign=middle;whiteSpace=wrap;rounded=0;fontStyle=1;fontSize=20;" vertex="1" parent="1">
          <mxGeometry x="327" y="-329" width="142" height="50" as="geometry" />
        </mxCell>
        <mxCell id="rYdtHCGjTf8S6d8_RMZv-27" style="edgeStyle=orthogonalEdgeStyle;rounded=0;orthogonalLoop=1;jettySize=auto;html=1;" edge="1" parent="1" source="rYdtHCGjTf8S6d8_RMZv-26" target="rYdtHCGjTf8S6d8_RMZv-14">
          <mxGeometry relative="1" as="geometry" />
        </mxCell>
        <mxCell id="rYdtHCGjTf8S6d8_RMZv-26" value="prod" style="text;html=1;align=center;verticalAlign=middle;whiteSpace=wrap;rounded=0;fontStyle=1;fontSize=20;" vertex="1" parent="1">
          <mxGeometry x="-387" y="-329" width="142" height="50" as="geometry" />
        </mxCell>
        <mxCell id="rYdtHCGjTf8S6d8_RMZv-28" value="oas-plataforma-staging-env" style="rounded=1;whiteSpace=wrap;html=1;fillColor=#FFF300;strokeColor=#b85450;" vertex="1" parent="1">
          <mxGeometry x="47" y="-482" width="180" height="60" as="geometry" />
        </mxCell>
        <mxCell id="rYdtHCGjTf8S6d8_RMZv-29" value="oas-plataforma-local-env" style="rounded=1;whiteSpace=wrap;html=1;fillColor=#e1d5e7;strokeColor=#9673a6;" vertex="1" parent="1">
          <mxGeometry x="249" y="-482.5" width="180" height="60" as="geometry" />
        </mxCell>
        <mxCell id="rYdtHCGjTf8S6d8_RMZv-34" style="edgeStyle=orthogonalEdgeStyle;rounded=0;orthogonalLoop=1;jettySize=auto;html=1;" edge="1" parent="1" source="rYdtHCGjTf8S6d8_RMZv-30" target="rYdtHCGjTf8S6d8_RMZv-33">
          <mxGeometry relative="1" as="geometry" />
        </mxCell>
        <mxCell id="rYdtHCGjTf8S6d8_RMZv-30" value="Projetos" style="text;html=1;align=center;verticalAlign=middle;whiteSpace=wrap;rounded=0;fontStyle=1;fontSize=32;" vertex="1" parent="1">
          <mxGeometry x="-36" y="-619" width="142" height="50" as="geometry" />
        </mxCell>
      </root>
    </mxGraphModel>
  </diagram>
</mxfile>
